<?xml version="1.0" standalone="no"?>
<!DOCTYPE svg PUBLIC "-//W3C//DTD SVG 20010904//EN"
 "http://www.w3.org/TR/2001/REC-SVG-20010904/DTD/svg10.dtd">
<svg version="1.0" xmlns="http://www.w3.org/2000/svg"
 width="96.000000pt" height="96.000000pt" viewBox="0 0 96.000000 96.000000"
 preserveAspectRatio="xMidYMid meet">

<g transform="translate(0.000000,96.000000) scale(0.100000,-0.100000)"
fill="#000000" stroke="none">
<path d="M423 673 c-7 -2 -13 -11 -13 -19 0 -10 -15 -14 -58 -14 -36 0 -70 -7
-92 -18 -42 -22 -80 -90 -80 -143 0 -49 -8 -69 -29 -69 -10 0 -27 -10 -39 -23
-20 -21 -22 -34 -22 -123 0 -61 -4 -104 -11 -111 -18 -18 -3 -43 25 -43 23 0
25 -4 28 -47 l3 -48 68 -3 67 -3 0 51 0 50 204 0 205 0 3 -47 3 -48 64 -3 c73
-3 81 3 81 61 0 33 3 37 25 37 28 0 44 25 26 43 -7 7 -11 49 -11 107 0 106
-13 140 -55 140 -20 0 -24 6 -29 40 -3 22 -9 58 -12 80 -11 78 -70 120 -169
120 -40 0 -55 4 -55 14 0 8 -7 17 -16 20 -18 7 -93 7 -111 -1z m281 -109 c14
-15 26 -34 26 -43 0 -9 3 -32 6 -51 l6 -35 -262 0 -261 0 5 29 c3 16 6 37 6
46 0 10 12 32 26 49 l26 31 198 0 197 0 27 -26z m-454 -224 c0 -18 -7 -20 -55
-20 -48 0 -55 2 -55 20 0 18 7 20 55 20 48 0 55 -2 55 -20z m570 1 c0 -21 -19
-31 -55 -31 -36 0 -55 10 -55 31 0 16 8 19 55 19 47 0 55 -3 55 -19z m-193
-63 c8 -7 19 -22 24 -35 7 -19 16 -22 71 -25 60 -3 63 -4 66 -30 l3 -28 -311
0 -311 0 3 28 c3 26 6 27 66 30 55 3 64 6 71 25 19 49 52 57 205 51 58 -2 104
-8 113 -16z"/>
</g>
</svg>
